# xmcd
#
# Track frame offsets:
# 150
# 24293
# 35693
# 49193
# 63476
# 72309
# 85807
# 107534
# 123530
# 136366
#
# Disc length: 2700 seconds
#
#
# Revision: 0
# Processed by: cddbd v1.5.1PL0 Copyright (c) Steve Scherf et al.
# Submitted via: FreeRIP 2.91 
#
DISCID=880a8a0a
DTITLE=Gut - Hamburg - New York jeden Morgen
DYEAR=2005
DGENRE=
TTITLE0=Hamburg - New York jeden Morgen
TTITLE1=Traurig aber gesund
TTITLE2=Die Insel
TTITLE3=Freut so
TTITLE4=Du kennst mich wohl nicht mehr
TTITLE5=Jetzt hier
TTITLE6=Likedeeler
TTITLE7=Lieber König
TTITLE8=Die See ist weit
TTITLE9=Dickes Auto
EXTD=
EXTT0=
EXTT1=
EXTT2=
EXTT3=
EXTT4=
EXTT5=
EXTT6=
EXTT7=
EXTT8=
EXTT9=
PLAYORDER=
